<?xml version="1.0" encoding="UTF-8"?>
<!DOCTYPE svg PUBLIC "-//W3C//DTD SVG 1.1//EN" "http://www.w3.org/Graphics/SVG/1.1/DTD/svg11.dtd">
<!-- Creator: CorelDRAW -->
<svg xmlns="http://www.w3.org/2000/svg" xml:space="preserve" width="3238px" height="3238px" style="shape-rendering:geometricPrecision; text-rendering:geometricPrecision; image-rendering:optimizeQuality; fill-rule:evenodd; clip-rule:evenodd"
viewBox="0 0 104005 104005"
 xmlns:xlink="http://www.w3.org/1999/xlink">
 <defs>
  <style type="text/css">
   <![CDATA[
    .fil2 {fill:#fff}
    .fil1 {fill:#000}
    .fil0 {fill:#FFCB06}

   ]]>
  </style>
 </defs>
 <g id="Слой_x0020_1">
  <metadata id="CorelCorpID_0Corel-Layer"/>
  <rect class="fil0" y="-0.000112636" width="104005" height="104005"/>
  <path class="fil1" d="M39500.7 11973.9c-11737.2,910.073 -19298.8,7815.87 -21748,19887.7 -495.193,2409 -669.172,4135.45 -762.839,7334.07 -173.979,7093.17 682.564,10305.2 5500.57,20570.2 2703.43,5781.61 3426.14,7574.97 3426.14,8565.36 -13.3918,3252.16 -1860.28,18228.1 -2890.81,23367.3 -200.763,950.21 -334.567,1739.83 -307.822,1766.62 40.1374,26.7836 33177.3,267.684 38329.9,267.684l1070.66 0 93.6667 -1204.5c66.921,-669.172 321.213,-2676.69 575.468,-4470.05 254.292,-1806.75 508.585,-3961.47 562.114,-4791.23l80.3128 -1498.93 615.643 -107.058c843.152,-147.234 4670.78,-107.058 9140.83,93.6667 2034.26,93.6667 4108.7,120.45 4603.89,66.921l896.681 -93.6667 -93.6667 -1820.15c-53.5292,-1017.13 -147.234,-2435.79 -214.117,-3171.84 -267.684,-2890.81 -535.33,-7427.78 -535.33,-9194.36l0 -1846.89 -3439.53 0c-3894.55,0 -6798.74,-160.588 -8444.91,-468.409 -2288.55,-428.272 -3158.49,-976.994 -4336.21,-2716.83l-682.564 -1003.74 7213.62 80.3128c3961.47,40.1374 7722.21,26.7836 8351.2,-13.3918l1137.58 -93.6667 120.45 -1338.34c93.6667,-1124.19 53.5292,-1779.97 -240.9,-4148.84 -187.371,-1552.46 -347.959,-2904.2 -347.959,-3011.26 0,-173.979 495.193,-200.763 3774.1,-160.588 3720.57,53.5292 8404.73,-160.588 8404.73,-388.134 0,-695.918 -2582.98,-6504.28 -3961.47,-8913.28 -5888.67,-10265.1 -13088.9,-19057.9 -19713.7,-24063.3 -1913.81,-1445.4 -3613.51,-2435.79 -5701.3,-3319.08 -4844.79,-2047.65 -9368.3,-3319.08 -13865.1,-3907.94 -1579.24,-200.763 -5406.87,-347.959 -6611.37,-254.292l0.0379371 -0.113811z"/>
  <path class="fil2" d="M64728.3 33320.3c2810.49,1271.42 2837.28,5045.52 66.921,6357.08 -2221.63,1057.27 -4871.54,-669.172 -4884.93,-3158.49 0,-1873.67 1605.99,-3479.67 3479.67,-3479.67 455.017,0 963.602,107.058 1338.34,281.038l0 0.0379371z"/>
 </g>
</svg>
