<?xml version="1.0" encoding="UTF-8"?>
<!DOCTYPE svg PUBLIC "-//W3C//DTD SVG 1.1//EN" "http://www.w3.org/Graphics/SVG/1.1/DTD/svg11.dtd">
<!-- Creator: CorelDRAW -->
<svg xmlns="http://www.w3.org/2000/svg" xml:space="preserve" width="300px" height="339px" style="shape-rendering:geometricPrecision; text-rendering:geometricPrecision; image-rendering:optimizeQuality; fill-rule:evenodd; clip-rule:evenodd"
viewBox="0 0 1784.5 2016.35"
 xmlns:xlink="http://www.w3.org/1999/xlink">
 <defs>
  <style type="text/css">
   <![CDATA[
    .fil0 {fill:#000}
    .fil1 {fill:#fff}
   ]]>
  </style>
 </defs>
 <g id="Слой_x0020_1">
  <metadata id="CorelCorpID_0Corel-Layer"/>
  <path class="fil0" d="M555.457 0.708941c-289.362,22.4364 -475.781,192.688 -536.162,490.299 -12.2082,59.3902 -16.4974,101.953 -18.8066,180.81 -4.28919,174.871 16.8275,254.057 135.608,507.125 66.6489,142.536 84.466,186.749 84.466,211.165 -0.330153,80.1768 -45.8623,449.386 -71.2682,576.085 -4.9495,23.4259 -8.24822,42.8928 -7.58885,43.5531 0.989525,0.660307 817.934,6.59933 944.963,6.59933l26.3954 0 2.3092 -29.6951c1.64983,-16.4974 7.91901,-65.9895 14.1872,-110.202 6.26917,-44.5427 12.5383,-97.6637 13.858,-118.12l1.97999 -36.9538 15.1777 -2.63936c20.7866,-3.62982 115.151,-2.63936 225.353,2.3092 50.1515,2.3092 101.294,2.96951 113.502,1.64983l22.1063 -2.3092 -2.3092 -44.8728c-1.31968,-25.0758 -3.62982,-60.0505 -5.27871,-78.1968 -6.59933,-71.2682 -13.1977,-183.12 -13.1977,-226.672l0 -45.5322 -84.7961 0c-96.0139,0 -167.612,-3.95904 -208.196,-11.5479 -56.4207,-10.5584 -77.8676,-24.0862 -106.902,-66.9791l-16.8275 -24.7456 177.84 1.97999c97.6637,0.989525 190.379,0.660307 205.886,-0.330153l28.0453 -2.3092 2.96951 -32.9948c2.3092,-27.7151 1.31968,-43.8823 -5.93902,-102.283 -4.61934,-38.2735 -8.57838,-71.5984 -8.57838,-74.2378 0,-4.28919 12.2082,-4.9495 93.0443,-3.95904 91.7247,1.31968 207.205,-3.95904 207.205,-9.56884 0,-17.1568 -63.6794,-160.353 -97.6637,-219.743 -145.176,-253.069 -322.687,-469.842 -486.01,-593.242 -47.182,-35.6341 -89.0853,-60.0505 -140.557,-81.8266 -119.441,-50.4817 -230.961,-81.8266 -341.823,-96.344 -38.9338,-4.9495 -133.298,-8.57838 -162.993,-6.26917l0.000935279 -0.00280584z"/>
  <path class="fil1" d="M1177.4 526.972c69.2883,31.3449 69.9486,124.389 1.64983,156.724 -54.7709,26.0653 -120.1,-16.4974 -120.43,-77.8676 0,-46.1925 39.5932,-85.7856 85.7856,-85.7856 11.2177,0 23.7561,2.63936 32.9948,6.92855l0 0.000935279z"/>
 </g>
</svg>
